# xmcd
#
# Track frame offsets:
# 150
# 21611
# 60204
# 117380
# 136931
# 171799
# 210396
# 232861
# 243409
# 275651
# 296468
# 306393
#
# Disc length: 4785 seconds
#
# Revision: 0
# Processed by: cddbd v1.4PL0 Copyright (c) Steve Scherf et al.
# Submitted via: Audion 3.0.2 (http://www.panic.com/audion/)
#
DISCID=aa12af0c
DTITLE=HYBRID - JJJ Mixup [CD 1)
DYEAR=1900
DGENRE=
TTITLE0=01// Hi-Fi Bugs - Lydian and The Dinosaur
TTITLE1=02// Freq. Nasty - Boomin Back Atcha (Hybrid's Music To Plough Fields To Mix//
TTITLE2=03// TCR - Paranoia, Hardkiss - The Phoenix
TTITLE3=04// Timo Maas - Der Schieber (Funkin' For Hope In New York Mix//
TTITLE4=05// Steve Reich - The Desert Music (Freq Nasty Mix), Ram Trilogy - Mindscape
TTITLE5=06// Shara Nelson and Kasha - U
TTITLE6=07// Motion Unit - My Mind
TTITLE7=08// Unknown White label
TTITLE8=09// Argonauts - Somertag
TTITLE9=10// Cass and Slide - Perception
TTITLE10=11// Unknown White label
TTITLE11=12// Hybrid - If I Survive (Way Out West Dub)
EXTD=
EXTT0=
EXTT1=
EXTT2=
EXTT3=
EXTT4=
EXTT5=
EXTT6=
EXTT7=
EXTT8=
EXTT9=
EXTT10=
EXTT11=
PLAYORDER=
